<svg width="744" height="833" viewBox="0 0 744 833" fill="none" xmlns="http://www.w3.org/2000/svg">
<g clip-path="url(#clip0_62_2)">
<rect width="744" height="833" fill="white"/>
<rect width="744" height="833" fill="url(#paint0_linear_62_2)"/>
<path opacity="0.61" d="M612.042 768.654L611.86 768.786C611.86 768.786 616.159 434.639 611.86 423.166C607.561 411.693 591.622 413.27 590.363 433.204C590.91 446.37 590.012 450.712 587.497 456.15C572.346 481.544 561.127 495.32 537.337 519.251C513.314 552.171 509.298 571.85 511.541 608.166C515.939 637.414 519.032 652.182 525.872 675.569C524.857 649.232 526.071 634.478 528.738 608.166C530.255 581.989 533.495 567.339 545.936 546.499C562.572 532.66 572.223 529.353 590.363 536.46V788.864C590.542 809.125 592.853 819.862 601.828 837.623C616.132 860.388 631.223 867.992 669.185 873.476C669.185 873.476 706.446 880.647 727.944 841.926C749.441 803.205 709.313 763.05 676.351 754.445C643.48 745.864 633.855 752.841 612.042 768.654Z" fill="url(#paint1_linear_62_2)"/>
<path opacity="0.97" d="M54.143 200.077L54.2236 200.136C54.2236 200.136 52.3151 51.3019 54.2236 46.1917C56.1321 41.0814 63.2083 41.7838 63.7672 50.6631C63.5243 56.5273 63.9228 58.4614 65.0396 60.8835C71.7657 72.1943 76.7462 78.3303 87.3078 88.9895C97.9728 103.652 99.7556 112.418 98.76 128.593C96.8073 141.621 95.4341 148.199 92.3977 158.616C92.8483 146.885 92.3093 140.313 91.1252 128.593C90.4518 116.934 89.0134 110.409 83.4904 101.126C76.1046 94.962 71.8201 93.4889 63.7672 96.6548V209.079C63.6878 218.104 62.6618 222.886 58.6773 230.797C52.3271 240.937 45.6272 244.324 28.7743 246.767C28.7743 246.767 12.2323 249.961 2.68864 232.714C-6.85504 215.467 10.9596 197.581 25.5931 193.748C40.1861 189.926 44.4588 193.034 54.143 200.077Z" fill="url(#paint2_linear_62_2)"/>
<path opacity="0.87" d="M208.361 518.018L208.411 518.055C208.411 518.055 207.235 426.128 208.411 422.971C209.586 419.815 213.947 420.249 214.291 425.733C214.141 429.355 214.387 430.55 215.075 432.046C219.219 439.032 222.288 442.822 228.796 449.405C235.367 458.462 236.466 463.876 235.852 473.867C234.649 481.913 233.803 485.976 231.932 492.41C232.21 485.164 231.877 481.105 231.148 473.867C230.733 466.665 229.847 462.635 226.444 456.901C221.893 453.094 219.253 452.184 214.291 454.14V523.578C214.242 529.152 213.61 532.106 211.155 536.992C207.242 543.255 203.114 545.347 192.73 546.856C192.73 546.856 182.537 548.829 176.657 538.176C170.776 527.524 181.753 516.477 190.769 514.109C199.761 511.749 202.394 513.668 208.361 518.018Z" fill="url(#paint3_linear_62_2)"/>
<rect x="-17.75" y="-14.75" width="192" height="186.1" stroke="url(#paint4_linear_62_2)" stroke-width="0.5"/>
<rect x="-17.75" y="171.85" width="192" height="186.1" stroke="url(#paint5_linear_62_2)" stroke-width="0.5"/>
<rect x="-17.75" y="358.45" width="192" height="186.1" stroke="url(#paint6_linear_62_2)" stroke-width="0.5"/>
<rect x="-17.75" y="545.05" width="192" height="186.1" stroke="url(#paint7_linear_62_2)" stroke-width="0.5"/>
<rect x="-17.75" y="731.65" width="192" height="186.1" stroke="url(#paint8_linear_62_2)" stroke-width="0.5"/>
<rect x="559.75" y="-14.75" width="192" height="186.1" stroke="url(#paint9_linear_62_2)" stroke-width="0.5"/>
<rect x="559.75" y="171.85" width="192" height="186.1" stroke="url(#paint10_linear_62_2)" stroke-width="0.5"/>
<rect x="559.75" y="358.45" width="192" height="186.1" stroke="url(#paint11_linear_62_2)" stroke-width="0.5"/>
<rect x="559.75" y="545.05" width="192" height="186.1" stroke="url(#paint12_linear_62_2)" stroke-width="0.5"/>
<rect x="559.75" y="731.65" width="192" height="186.1" stroke="url(#paint13_linear_62_2)" stroke-width="0.5"/>
<rect x="367.25" y="-14.75" width="192" height="186.1" stroke="url(#paint14_linear_62_2)" stroke-width="0.5"/>
<rect x="367.25" y="171.85" width="192" height="186.1" stroke="url(#paint15_linear_62_2)" stroke-width="0.5"/>
<rect x="367.25" y="358.45" width="192" height="186.1" stroke="url(#paint16_linear_62_2)" stroke-width="0.5"/>
<rect x="367.25" y="545.05" width="192" height="186.1" stroke="url(#paint17_linear_62_2)" stroke-width="0.5"/>
<rect x="367.25" y="731.65" width="192" height="186.1" stroke="url(#paint18_linear_62_2)" stroke-width="0.5"/>
<rect x="174.75" y="-14.75" width="192" height="186.1" stroke="url(#paint19_linear_62_2)" stroke-width="0.5"/>
<rect x="174.75" y="171.85" width="192" height="186.1" stroke="url(#paint20_linear_62_2)" stroke-width="0.5"/>
<rect x="174.75" y="358.45" width="192" height="186.1" stroke="url(#paint21_linear_62_2)" stroke-width="0.5"/>
<rect x="174.75" y="545.05" width="192" height="186.1" stroke="url(#paint22_linear_62_2)" stroke-width="0.5"/>
<rect x="174.75" y="731.65" width="192" height="186.1" stroke="url(#paint23_linear_62_2)" stroke-width="0.5"/>
</g>
<defs>
<linearGradient id="paint0_linear_62_2" x1="474" y1="253" x2="20.5" y2="819.5" gradientUnits="userSpaceOnUse">
<stop/>
<stop offset="1" stop-color="#2A2A2A"/>
</linearGradient>
<linearGradient id="paint1_linear_62_2" x1="622.5" y1="416" x2="622.5" y2="874" gradientUnits="userSpaceOnUse">
<stop stop-color="white"/>
<stop offset="1" stop-color="#999999"/>
</linearGradient>
<linearGradient id="paint2_linear_62_2" x1="49.5" y1="43" x2="49.5" y2="247" gradientUnits="userSpaceOnUse">
<stop stop-color="white"/>
<stop offset="1" stop-color="#999999"/>
</linearGradient>
<linearGradient id="paint3_linear_62_2" x1="205.5" y1="421" x2="205.5" y2="547" gradientUnits="userSpaceOnUse">
<stop stop-color="white"/>
<stop offset="1" stop-color="#999999"/>
</linearGradient>
<linearGradient id="paint4_linear_62_2" x1="78.25" y1="-15" x2="78.25" y2="171.6" gradientUnits="userSpaceOnUse">
<stop stop-color="white" stop-opacity="0.29"/>
<stop offset="1" stop-color="#999999" stop-opacity="0.73"/>
</linearGradient>
<linearGradient id="paint5_linear_62_2" x1="78.25" y1="171.6" x2="78.25" y2="358.2" gradientUnits="userSpaceOnUse">
<stop stop-color="white" stop-opacity="0.29"/>
<stop offset="1" stop-color="#999999" stop-opacity="0.73"/>
</linearGradient>
<linearGradient id="paint6_linear_62_2" x1="78.25" y1="358.2" x2="78.25" y2="544.8" gradientUnits="userSpaceOnUse">
<stop stop-color="white" stop-opacity="0.29"/>
<stop offset="1" stop-color="#999999" stop-opacity="0.73"/>
</linearGradient>
<linearGradient id="paint7_linear_62_2" x1="78.25" y1="544.8" x2="78.25" y2="731.4" gradientUnits="userSpaceOnUse">
<stop stop-color="white" stop-opacity="0.29"/>
<stop offset="1" stop-color="#999999" stop-opacity="0.73"/>
</linearGradient>
<linearGradient id="paint8_linear_62_2" x1="78.25" y1="731.4" x2="78.25" y2="918" gradientUnits="userSpaceOnUse">
<stop stop-color="white" stop-opacity="0.29"/>
<stop offset="1" stop-color="#999999" stop-opacity="0.73"/>
</linearGradient>
<linearGradient id="paint9_linear_62_2" x1="655.75" y1="-15" x2="655.75" y2="171.6" gradientUnits="userSpaceOnUse">
<stop stop-color="white" stop-opacity="0.29"/>
<stop offset="1" stop-color="#999999" stop-opacity="0.73"/>
</linearGradient>
<linearGradient id="paint10_linear_62_2" x1="655.75" y1="171.6" x2="655.75" y2="358.2" gradientUnits="userSpaceOnUse">
<stop stop-color="white" stop-opacity="0.29"/>
<stop offset="1" stop-color="#999999" stop-opacity="0.73"/>
</linearGradient>
<linearGradient id="paint11_linear_62_2" x1="655.75" y1="358.2" x2="655.75" y2="544.8" gradientUnits="userSpaceOnUse">
<stop stop-color="white" stop-opacity="0.29"/>
<stop offset="1" stop-color="#999999" stop-opacity="0.73"/>
</linearGradient>
<linearGradient id="paint12_linear_62_2" x1="655.75" y1="544.8" x2="655.75" y2="731.4" gradientUnits="userSpaceOnUse">
<stop stop-color="white" stop-opacity="0.29"/>
<stop offset="1" stop-color="#999999" stop-opacity="0.73"/>
</linearGradient>
<linearGradient id="paint13_linear_62_2" x1="655.75" y1="731.4" x2="655.75" y2="918" gradientUnits="userSpaceOnUse">
<stop stop-color="white" stop-opacity="0.29"/>
<stop offset="1" stop-color="#999999" stop-opacity="0.73"/>
</linearGradient>
<linearGradient id="paint14_linear_62_2" x1="463.25" y1="-15" x2="463.25" y2="171.6" gradientUnits="userSpaceOnUse">
<stop stop-color="white" stop-opacity="0.29"/>
<stop offset="1" stop-color="#999999" stop-opacity="0.73"/>
</linearGradient>
<linearGradient id="paint15_linear_62_2" x1="463.25" y1="171.6" x2="463.25" y2="358.2" gradientUnits="userSpaceOnUse">
<stop stop-color="white" stop-opacity="0.29"/>
<stop offset="1" stop-color="#999999" stop-opacity="0.73"/>
</linearGradient>
<linearGradient id="paint16_linear_62_2" x1="463.25" y1="358.2" x2="463.25" y2="544.8" gradientUnits="userSpaceOnUse">
<stop stop-color="white" stop-opacity="0.29"/>
<stop offset="1" stop-color="#999999" stop-opacity="0.73"/>
</linearGradient>
<linearGradient id="paint17_linear_62_2" x1="463.25" y1="544.8" x2="463.25" y2="731.4" gradientUnits="userSpaceOnUse">
<stop stop-color="white" stop-opacity="0.29"/>
<stop offset="1" stop-color="#999999" stop-opacity="0.73"/>
</linearGradient>
<linearGradient id="paint18_linear_62_2" x1="463.25" y1="731.4" x2="463.25" y2="918" gradientUnits="userSpaceOnUse">
<stop stop-color="white" stop-opacity="0.29"/>
<stop offset="1" stop-color="#999999" stop-opacity="0.73"/>
</linearGradient>
<linearGradient id="paint19_linear_62_2" x1="270.75" y1="-15" x2="270.75" y2="171.6" gradientUnits="userSpaceOnUse">
<stop stop-color="white" stop-opacity="0.29"/>
<stop offset="1" stop-color="#999999" stop-opacity="0.73"/>
</linearGradient>
<linearGradient id="paint20_linear_62_2" x1="270.75" y1="171.6" x2="270.75" y2="358.2" gradientUnits="userSpaceOnUse">
<stop stop-color="white" stop-opacity="0.29"/>
<stop offset="1" stop-color="#999999" stop-opacity="0.73"/>
</linearGradient>
<linearGradient id="paint21_linear_62_2" x1="270.75" y1="358.2" x2="270.75" y2="544.8" gradientUnits="userSpaceOnUse">
<stop stop-color="white" stop-opacity="0.29"/>
<stop offset="1" stop-color="#999999" stop-opacity="0.73"/>
</linearGradient>
<linearGradient id="paint22_linear_62_2" x1="270.75" y1="544.8" x2="270.75" y2="731.4" gradientUnits="userSpaceOnUse">
<stop stop-color="white" stop-opacity="0.29"/>
<stop offset="1" stop-color="#999999" stop-opacity="0.73"/>
</linearGradient>
<linearGradient id="paint23_linear_62_2" x1="270.75" y1="731.4" x2="270.75" y2="918" gradientUnits="userSpaceOnUse">
<stop stop-color="white" stop-opacity="0.29"/>
<stop offset="1" stop-color="#999999" stop-opacity="0.73"/>
</linearGradient>
<clipPath id="clip0_62_2">
<rect width="744" height="833" fill="white"/>
</clipPath>
</defs>
</svg>
