<svg width="179" height="178" viewBox="0 0 179 178" fill="none" xmlns="http://www.w3.org/2000/svg">
<rect width="179" height="178" rx="89" fill="white"/>
<path d="M17.679 74.9091V104H11.5284V74.9091H17.679ZM28.6768 91.3864V104H22.6257V82.1818H28.3928V86.0312H28.6484C29.1314 84.7623 29.9411 83.7585 31.0774 83.0199C32.2138 82.2718 33.5916 81.8977 35.2109 81.8977C36.7261 81.8977 38.0471 82.2292 39.174 82.892C40.3009 83.5549 41.1768 84.5019 41.8018 85.733C42.4268 86.9545 42.7393 88.4129 42.7393 90.108V104H36.6882V91.1875C36.6977 89.8523 36.3568 88.8106 35.6655 88.0625C34.9742 87.3049 34.0225 86.9261 32.8104 86.9261C31.996 86.9261 31.2763 87.1013 30.6513 87.4517C30.0357 87.8021 29.5528 88.3134 29.2024 88.9858C28.8615 89.6487 28.6863 90.4489 28.6768 91.3864ZM53.7301 104.412C52.3381 104.412 51.0975 104.17 50.0085 103.688C48.9195 103.195 48.0578 102.471 47.4233 101.514C46.7983 100.548 46.4858 99.3456 46.4858 97.9062C46.4858 96.6941 46.7083 95.6761 47.1534 94.8523C47.5985 94.0284 48.2045 93.3655 48.9716 92.8636C49.7386 92.3617 50.6098 91.983 51.5852 91.7273C52.5701 91.4716 53.6023 91.2917 54.6818 91.1875C55.9508 91.0549 56.9735 90.9318 57.75 90.8182C58.5265 90.6951 59.09 90.5152 59.4403 90.2784C59.7907 90.0417 59.9659 89.6913 59.9659 89.2273V89.142C59.9659 88.2424 59.6818 87.5464 59.1136 87.054C58.5549 86.5616 57.7595 86.3153 56.7273 86.3153C55.6383 86.3153 54.7718 86.5568 54.1278 87.0398C53.4839 87.5133 53.0578 88.1098 52.8494 88.8295L47.2528 88.375C47.5369 87.0492 48.0956 85.9034 48.929 84.9375C49.7623 83.9621 50.8371 83.214 52.1534 82.6932C53.4792 82.1629 55.0133 81.8977 56.7557 81.8977C57.9678 81.8977 59.1278 82.0398 60.2358 82.3239C61.3532 82.608 62.3428 83.0483 63.2045 83.6449C64.0758 84.2415 64.7623 85.0085 65.2642 85.946C65.7661 86.8741 66.017 87.9867 66.017 89.2841V104H60.2784V100.974H60.108C59.7576 101.656 59.2888 102.258 58.7017 102.778C58.1146 103.29 57.4091 103.692 56.5852 103.986C55.7614 104.27 54.8097 104.412 53.7301 104.412ZM55.4631 100.236C56.3532 100.236 57.1392 100.061 57.821 99.7102C58.5028 99.3504 59.0379 98.8674 59.4261 98.2614C59.8144 97.6553 60.0085 96.9687 60.0085 96.2017V93.8864C59.8191 94.0095 59.5587 94.1231 59.2273 94.2273C58.9053 94.322 58.5407 94.4119 58.1335 94.4972C57.7263 94.5729 57.3191 94.6439 56.9119 94.7102C56.5047 94.767 56.1354 94.8191 55.804 94.8665C55.0938 94.9706 54.4735 95.1364 53.9432 95.3636C53.4129 95.5909 53.0009 95.8987 52.7074 96.2869C52.4138 96.6657 52.267 97.1392 52.267 97.7074C52.267 98.5312 52.5653 99.161 53.1619 99.5966C53.768 100.023 54.535 100.236 55.4631 100.236ZM70.7116 104V82.1818H76.7628V104H70.7116ZM73.7514 79.3693C72.8518 79.3693 72.08 79.071 71.4361 78.4744C70.8016 77.8684 70.4844 77.1439 70.4844 76.3011C70.4844 75.4678 70.8016 74.7528 71.4361 74.1562C72.08 73.5502 72.8518 73.2472 73.7514 73.2472C74.651 73.2472 75.4181 73.5502 76.0526 74.1562C76.6965 74.7528 77.0185 75.4678 77.0185 76.3011C77.0185 77.1439 76.6965 77.8684 76.0526 78.4744C75.4181 79.071 74.651 79.3693 73.7514 79.3693ZM88.3466 74.9091L95.3778 97.0114H95.6477L102.693 74.9091H109.511L99.483 104H91.5568L81.5142 74.9091H88.3466ZM112.899 104V82.1818H118.95V104H112.899ZM115.939 79.3693C115.039 79.3693 114.268 79.071 113.624 78.4744C112.989 77.8684 112.672 77.1439 112.672 76.3011C112.672 75.4678 112.989 74.7528 113.624 74.1562C114.268 73.5502 115.039 73.2472 115.939 73.2472C116.839 73.2472 117.606 73.5502 118.24 74.1562C118.884 74.7528 119.206 75.4678 119.206 76.3011C119.206 77.1439 118.884 77.8684 118.24 78.4744C117.606 79.071 116.839 79.3693 115.939 79.3693ZM123.911 104V74.9091H129.962V85.8466H130.147C130.412 85.2595 130.796 84.6629 131.298 84.0568C131.809 83.4413 132.472 82.9299 133.286 82.5227C134.11 82.1061 135.133 81.8977 136.354 81.8977C137.945 81.8977 139.413 82.3144 140.758 83.1477C142.103 83.9716 143.177 85.2169 143.982 86.8835C144.787 88.5407 145.19 90.6193 145.19 93.1193C145.19 95.553 144.797 97.608 144.011 99.2841C143.234 100.951 142.174 102.215 140.829 103.077C139.494 103.929 137.997 104.355 136.34 104.355C135.166 104.355 134.167 104.161 133.343 103.773C132.529 103.384 131.861 102.897 131.34 102.31C130.819 101.713 130.422 101.112 130.147 100.506H129.877V104H123.911ZM129.835 93.0909C129.835 94.3883 130.014 95.5199 130.374 96.4858C130.734 97.4517 131.255 98.2045 131.937 98.7443C132.619 99.2746 133.447 99.5398 134.423 99.5398C135.407 99.5398 136.241 99.2699 136.923 98.7301C137.604 98.1809 138.121 97.4233 138.471 96.4574C138.831 95.482 139.011 94.3598 139.011 93.0909C139.011 91.8314 138.835 90.7235 138.485 89.767C138.135 88.8106 137.619 88.0625 136.937 87.5227C136.255 86.983 135.417 86.7131 134.423 86.7131C133.438 86.7131 132.604 86.9735 131.923 87.4943C131.25 88.0152 130.734 88.7538 130.374 89.7102C130.014 90.6667 129.835 91.7936 129.835 93.0909ZM159.17 104.426C156.926 104.426 154.994 103.972 153.375 103.062C151.765 102.144 150.525 100.847 149.653 99.1705C148.782 97.4848 148.347 95.4915 148.347 93.1903C148.347 90.946 148.782 88.9763 149.653 87.2812C150.525 85.5862 151.751 84.2652 153.332 83.3182C154.923 82.3712 156.789 81.8977 158.929 81.8977C160.368 81.8977 161.708 82.1297 162.949 82.5938C164.199 83.0483 165.288 83.7348 166.216 84.6534C167.153 85.572 167.883 86.7273 168.403 88.1193C168.924 89.5019 169.185 91.1212 169.185 92.9773V94.6392H150.761V90.8892H163.489C163.489 90.018 163.299 89.2462 162.92 88.5739C162.542 87.9015 162.016 87.3759 161.344 86.9972C160.681 86.6089 159.909 86.4148 159.028 86.4148C158.11 86.4148 157.295 86.6278 156.585 87.054C155.884 87.4706 155.335 88.0341 154.938 88.7443C154.54 89.4451 154.336 90.2263 154.327 91.0881V94.6534C154.327 95.733 154.526 96.6657 154.923 97.4517C155.33 98.2377 155.903 98.8438 156.642 99.2699C157.381 99.696 158.257 99.9091 159.27 99.9091C159.942 99.9091 160.558 99.8144 161.116 99.625C161.675 99.4356 162.153 99.1515 162.551 98.7727C162.949 98.3939 163.252 97.9299 163.46 97.3807L169.057 97.75C168.773 99.0947 168.19 100.269 167.31 101.273C166.438 102.267 165.312 103.044 163.929 103.602C162.556 104.152 160.97 104.426 159.17 104.426Z" fill="url(#paint0_linear_210_3)"/>
<defs>
<linearGradient id="paint0_linear_210_3" x1="9" y1="89" x2="171" y2="89" gradientUnits="userSpaceOnUse">
<stop stop-color="#7E8797"/>
<stop offset="1" stop-color="#18202C"/>
</linearGradient>
</defs>
</svg>
