<svg width="223" height="416" viewBox="0 0 223 416" fill="none" xmlns="http://www.w3.org/2000/svg">
<path opacity="0.61" d="M101.042 352.654L100.86 352.786C100.86 352.786 105.159 18.6386 100.86 7.16559C96.5609 -4.30741 80.6217 -2.73042 79.3629 17.2044C79.9099 30.3701 79.0122 34.7125 76.4966 40.1501C61.3458 65.544 50.1273 79.32 26.337 103.251C2.31381 136.171 -1.70201 155.85 0.540588 192.166C4.93909 221.414 8.03223 236.182 14.8719 259.569C13.8569 233.232 15.0709 218.478 17.7382 192.166C19.2551 165.989 22.4951 151.339 34.9358 130.499C51.5724 116.66 61.2233 113.353 79.3629 120.46V372.864C79.5417 393.125 81.8526 403.862 90.8279 421.623C105.132 444.388 120.223 451.992 158.185 457.476C158.185 457.476 195.446 464.647 216.944 425.926C238.441 387.205 198.313 347.05 165.351 338.445C132.48 329.864 122.855 336.841 101.042 352.654Z" fill="url(#paint0_linear_31_24)"/>
<defs>
<linearGradient id="paint0_linear_31_24" x1="111.5" y1="0" x2="111.5" y2="458" gradientUnits="userSpaceOnUse">
<stop stop-color="white"/>
<stop offset="1" stop-color="#999999"/>
</linearGradient>
</defs>
</svg>
