<svg width="99" height="204" viewBox="0 0 99 204" fill="none" xmlns="http://www.w3.org/2000/svg">
<path opacity="0.97" d="M54.143 157.077L54.2236 157.136C54.2236 157.136 52.3151 8.3019 54.2236 3.19165C56.1321 -1.91859 63.2083 -1.21618 63.7672 7.66307C63.5243 13.5273 63.9228 15.4614 65.0396 17.8835C71.7657 29.1943 76.7462 35.3303 87.3078 45.9895C97.9728 60.6524 99.7556 69.4178 98.76 85.5935C96.8073 98.621 95.4341 105.199 92.3977 115.616C92.8483 103.885 92.3093 97.3133 91.1252 85.5935C90.4518 73.934 89.0134 67.4087 83.4904 58.1262C76.1046 51.962 71.8201 50.4889 63.7672 53.6548V166.079C63.6878 175.104 62.6618 179.886 58.6773 187.797C52.3271 197.937 45.6272 201.324 28.7743 203.767C28.7743 203.767 12.2323 206.961 2.68864 189.714C-6.85504 172.467 10.9596 154.581 25.5931 150.748C40.1861 146.926 44.4588 150.034 54.143 157.077Z" fill="url(#paint0_linear_31_42)"/>
<defs>
<linearGradient id="paint0_linear_31_42" x1="49.5" y1="0" x2="49.5" y2="204" gradientUnits="userSpaceOnUse">
<stop stop-color="white"/>
<stop offset="1" stop-color="#999999"/>
</linearGradient>
</defs>
</svg>
